<mxfile host="app.diagrams.net" modified="2022-11-16T11:24:59.323Z" agent="5.0 (Macintosh; Intel Mac OS X 10_15_7) AppleWebKit/537.36 (KHTML, like Gecko) Chrome/107.0.0.0 Safari/537.36" etag="Tfj8B6xksX71JW9yrGv5" version="20.5.3" type="github">
  <diagram id="T3blW-LhDLURtOs-l3T_" name="第 1 页">
    <mxGraphModel dx="1426" dy="826" grid="1" gridSize="10" guides="1" tooltips="1" connect="1" arrows="1" fold="1" page="1" pageScale="1" pageWidth="827" pageHeight="1169" math="0" shadow="0">
      <root>
        <mxCell id="0" />
        <mxCell id="1" parent="0" />
        <mxCell id="5AFHOJudG9bfwEePMLhu-1" value="部门、公司采购计划、申请" style="rounded=1;whiteSpace=wrap;html=1;" vertex="1" parent="1">
          <mxGeometry x="330" y="130" width="150" height="60" as="geometry" />
        </mxCell>
        <mxCell id="5AFHOJudG9bfwEePMLhu-2" value="" style="endArrow=classic;html=1;rounded=0;exitX=0.467;exitY=1;exitDx=0;exitDy=0;exitPerimeter=0;entryX=0.5;entryY=0;entryDx=0;entryDy=0;" edge="1" parent="1" source="5AFHOJudG9bfwEePMLhu-1" target="5AFHOJudG9bfwEePMLhu-4">
          <mxGeometry width="50" height="50" relative="1" as="geometry">
            <mxPoint x="400" y="200" as="sourcePoint" />
            <mxPoint x="400.0333333333333" y="210" as="targetPoint" />
          </mxGeometry>
        </mxCell>
        <mxCell id="5AFHOJudG9bfwEePMLhu-10" style="edgeStyle=orthogonalEdgeStyle;rounded=0;orthogonalLoop=1;jettySize=auto;html=1;exitX=1;exitY=0.5;exitDx=0;exitDy=0;entryX=0;entryY=0.5;entryDx=0;entryDy=0;endArrow=none;endFill=0;" edge="1" parent="1" source="5AFHOJudG9bfwEePMLhu-4" target="5AFHOJudG9bfwEePMLhu-6">
          <mxGeometry relative="1" as="geometry" />
        </mxCell>
        <mxCell id="5AFHOJudG9bfwEePMLhu-4" value="报送审批、审议" style="rounded=1;whiteSpace=wrap;html=1;" vertex="1" parent="1">
          <mxGeometry x="340" y="240" width="120" height="60" as="geometry" />
        </mxCell>
        <mxCell id="5AFHOJudG9bfwEePMLhu-9" style="edgeStyle=orthogonalEdgeStyle;rounded=0;orthogonalLoop=1;jettySize=auto;html=1;exitX=1;exitY=0.5;exitDx=0;exitDy=0;entryX=0;entryY=0.5;entryDx=0;entryDy=0;endArrow=none;endFill=0;" edge="1" parent="1" source="5AFHOJudG9bfwEePMLhu-5" target="5AFHOJudG9bfwEePMLhu-4">
          <mxGeometry relative="1" as="geometry" />
        </mxCell>
        <mxCell id="5AFHOJudG9bfwEePMLhu-5" value="采购审批表" style="rounded=1;whiteSpace=wrap;html=1;" vertex="1" parent="1">
          <mxGeometry x="150" y="240" width="120" height="60" as="geometry" />
        </mxCell>
        <mxCell id="5AFHOJudG9bfwEePMLhu-6" value="用款审批单表" style="rounded=1;whiteSpace=wrap;html=1;" vertex="1" parent="1">
          <mxGeometry x="530" y="240" width="120" height="60" as="geometry" />
        </mxCell>
        <mxCell id="5AFHOJudG9bfwEePMLhu-11" value="" style="rounded=1;whiteSpace=wrap;html=1;" vertex="1" parent="1">
          <mxGeometry x="340" y="360" width="120" height="60" as="geometry" />
        </mxCell>
      </root>
    </mxGraphModel>
  </diagram>
</mxfile>
